<svg xmlns="http://www.w3.org/2000/svg" viewBox="0 0 1000 540" width="1000" height="540" role="img" aria-labelledby="t d">
<title id="t">Toolbox</title>
<desc id="d">Tools grouped by role. Languages: JavaScript, C++, Ruby, Python. Web: HTML5, CSS3. Runtimes and frameworks: Node.js, React Native, Expo, Electron. Database: MongoDB. Editor: Visual Studio Code.</desc>
<defs>
<radialGradient id="shade" cx="0.34" cy="0.3" r="0.85">
  <stop offset="0" stop-color="#fff" stop-opacity="0.42"/>
  <stop offset="0.3" stop-color="#fff" stop-opacity="0.05"/>
  <stop offset="0.62" stop-color="#000" stop-opacity="0"/>
  <stop offset="1" stop-color="#3A0000" stop-opacity="0.45"/>
</radialGradient>

<style>
text { font-family: 'Inter', 'SF Pro Display', 'Segoe UI', Roboto, 'Helvetica Neue', Arial, sans-serif; }
.serif { font-family: Georgia, 'Times New Roman', serif; font-style: italic; }
.mono { font-family: ui-monospace, SFMono-Regular, Menlo, Consolas, monospace; }
.rise { animation: rise 0.8s cubic-bezier(.2,.8,.2,1) backwards; }
@keyframes rise { from { opacity: 0; transform: translateY(14px); } }
@media (prefers-reduced-motion: reduce) { * { animation: none !important; } }
</style>
</defs>
<clipPath id="s1"><rect x="0" y="0" width="620" height="262" rx="28"/></clipPath><g class="rise" style="animation-delay:0.00s"><rect x="0" y="0" width="620" height="262" rx="28" fill="#1F7A52"/><g clip-path="url(#s1)"><text x="32" y="50" font-size="26" font-weight="800" fill="#FFF3E0" letter-spacing="-0.5">Languages</text><rect x="49.0" y="88.0" width="104" height="104" rx="31" fill="#FFF3E0"/><text x="101" y="155" text-anchor="middle" font-size="42" font-weight="900" fill="#1F7A52" letter-spacing="-1">JS</text><text x="101" y="236" text-anchor="middle" font-size="19" font-weight="700" fill="#FFF3E0">JavaScript</text><rect x="188.0" y="88.0" width="104" height="104" rx="31" fill="#FFF3E0"/><text x="240" y="153" text-anchor="middle" font-size="36" font-weight="900" fill="#1F7A52" letter-spacing="-1">C++</text><text x="240" y="236" text-anchor="middle" font-size="19" font-weight="700" fill="#FFF3E0">C++</text><rect x="327.0" y="88.0" width="104" height="104" rx="31" fill="#FFF3E0"/><text x="379" y="155" text-anchor="middle" font-size="42" font-weight="900" fill="#1F7A52" letter-spacing="-1">Rb</text><text x="379" y="236" text-anchor="middle" font-size="19" font-weight="700" fill="#FFF3E0">Ruby</text><rect x="466.0" y="88.0" width="104" height="104" rx="31" fill="#FFF3E0"/><text x="518" y="155" text-anchor="middle" font-size="42" font-weight="900" fill="#1F7A52" letter-spacing="-1">Py</text><text x="518" y="236" text-anchor="middle" font-size="19" font-weight="700" fill="#FFF3E0">Python</text></g></g><clipPath id="s2"><rect x="636" y="0" width="364" height="262" rx="28"/></clipPath><g class="rise" style="animation-delay:0.12s"><rect x="636" y="0" width="364" height="262" rx="28" fill="#BCA8F7"/><g clip-path="url(#s2)"><g transform="translate(636 0)"><text x="32" y="50" font-size="26" font-weight="800" fill="#1E1530" letter-spacing="-0.5">Web</text><circle cx="107" cy="140" r="54.0" fill="#1E1530"/><text x="107" y="155" text-anchor="middle" font-size="42" font-weight="900" fill="#FFF3E0" letter-spacing="-1">H5</text><text x="107" y="236" text-anchor="middle" font-size="19" font-weight="700" fill="#1E1530">HTML5</text><circle cx="257" cy="140" r="54.0" fill="#1E1530"/><text x="257" y="155" text-anchor="middle" font-size="42" font-weight="900" fill="#FFF3E0" letter-spacing="-1">C3</text><text x="257" y="236" text-anchor="middle" font-size="19" font-weight="700" fill="#1E1530">CSS3</text></g></g></g><clipPath id="s3"><rect x="0" y="278" width="620" height="262" rx="28"/></clipPath><g class="rise" style="animation-delay:0.24s"><rect x="0" y="278" width="620" height="262" rx="28" fill="#1E1530"/><g clip-path="url(#s3)"><g transform="translate(0 278)"><text x="32" y="50" font-size="26" font-weight="800" fill="#FFF3E0" letter-spacing="-0.5">Runtimes and frameworks</text><polygon points="101.0,94.0 146.0,120.0 146.0,172.0 101.0,198.0 56.0,172.0 56.0,120.0" fill="#F6D86B" stroke="#F6D86B" stroke-width="12" stroke-linejoin="round"/><text x="101" y="159" text-anchor="middle" font-size="38" font-weight="900" fill="#1E1530" letter-spacing="-1">No</text><text x="101" y="246" text-anchor="middle" font-size="18" font-weight="700" fill="#FFF3E0">Node.js</text><polygon points="240.0,94.0 285.0,120.0 285.0,172.0 240.0,198.0 195.0,172.0 195.0,120.0" fill="#F6D86B" stroke="#F6D86B" stroke-width="12" stroke-linejoin="round"/><text x="240" y="159" text-anchor="middle" font-size="38" font-weight="900" fill="#1E1530" letter-spacing="-1">RN</text><text x="240" y="246" text-anchor="middle" font-size="18" font-weight="700" fill="#FFF3E0">React Native</text><polygon points="379.0,94.0 424.0,120.0 424.0,172.0 379.0,198.0 334.0,172.0 334.0,120.0" fill="#F6D86B" stroke="#F6D86B" stroke-width="12" stroke-linejoin="round"/><text x="379" y="159" text-anchor="middle" font-size="38" font-weight="900" fill="#1E1530" letter-spacing="-1">Ex</text><text x="379" y="246" text-anchor="middle" font-size="18" font-weight="700" fill="#FFF3E0">Expo</text><polygon points="518.0,94.0 563.0,120.0 563.0,172.0 518.0,198.0 473.0,172.0 473.0,120.0" fill="#F6D86B" stroke="#F6D86B" stroke-width="12" stroke-linejoin="round"/><text x="518" y="159" text-anchor="middle" font-size="38" font-weight="900" fill="#1E1530" letter-spacing="-1">El</text><text x="518" y="246" text-anchor="middle" font-size="18" font-weight="700" fill="#FFF3E0">Electron</text></g></g></g><clipPath id="s4"><rect x="636" y="278" width="364" height="123" rx="28"/></clipPath><g class="rise" style="animation-delay:0.36s"><rect x="636" y="278" width="364" height="123" rx="28" fill="#F6D86B"/><g clip-path="url(#s4)"><g transform="translate(636 278)"><text x="32" y="38" font-size="16" font-weight="700" fill="#1A0F12" fill-opacity="0.65">Database</text><circle cx="62" cy="82" r="30.0" fill="#0F0A18"/><text x="62" y="94" text-anchor="middle" font-size="25" font-weight="900" fill="#F6D86B">Mo</text><text x="110" y="92" font-size="30" font-weight="900" fill="#1A0F12" letter-spacing="-1">MongoDB</text></g></g></g><clipPath id="s5"><rect x="636" y="417" width="364" height="123" rx="28"/></clipPath><g class="rise" style="animation-delay:0.48s"><rect x="636" y="417" width="364" height="123" rx="28" fill="#F2452E"/><g clip-path="url(#s5)"><g transform="translate(636 417)"><text x="32" y="38" font-size="16" font-weight="700" fill="#FFF3E0" fill-opacity="0.85">Editor</text><rect x="32.0" y="52.0" width="60" height="60" rx="18" fill="#FFF3E0"/><text x="62" y="94" text-anchor="middle" font-size="25" font-weight="900" fill="#7A1608">VS</text><text x="110" y="90" font-size="21" font-weight="900" fill="#FFF3E0" letter-spacing="-0.5">Visual Studio Code</text></g></g></g></svg>